<svg width="280" height="93" xmlns="http://www.w3.org/2000/svg" xmlns:cc="http://creativecommons.org/ns#" fill="none">

 <g>
  <title>Layer 1</title>
  <path id="svg_12" fill="#F35F19" d="m112.281,46.47075c0,-12.8282 9.434,-21.2774 21.153,-21.2774c7.336,0 12.394,3.2071 15.968,7.6485l-4.066,2.5898c-2.59,-3.332 -6.973,-5.6758 -11.902,-5.6758c-9.004,0 -15.852,6.8438 -15.852,16.7149c0,9.7422 6.848,16.7109 15.852,16.7109c4.929,0 9.004,-2.3438 11.097,-4.4414l0,-8.3242l-14.183,0l0,-4.5625l19.242,0l0,14.8008c-3.824,4.3164 -9.438,7.1523 -16.156,7.1523c-11.719,0 -21.153,-8.5742 -21.153,-21.3359z"/>
  <path id="svg_13" fill="#F35F19" d="m182.094,38.3281c0,-4.6875 -3.391,-7.832 -8.262,-7.832l-10.793,0l0,15.7266l10.793,0c4.871,0 8.262,-3.2696 8.262,-7.8946zm-0.371,28.7383l-10.422,-16.3437l-8.262,0l0,16.3437l-5.117,0l0,-41.1328l16.523,0c7.528,0 12.953,4.8086 12.953,12.3945c0,7.3985 -5.117,11.4688 -10.73,11.9649l11.102,16.7734l-6.047,0z"/>
  <path id="svg_14" fill="#F35F19" d="m195.48,67.0664l0,-41.1328l5.118,0l0,41.1328l-5.118,0z"/>
  <path id="svg_15" fill="#F35F19" d="m240.07,46.5313c0,-8.8828 -5.613,-16.0352 -15.789,-16.0352l-8.941,0l0,32.0078l8.941,0c9.992,0 15.789,-7.1562 15.789,-15.9726zm-29.847,20.5351l0,-41.1328l14.058,0c12.828,0 21.09,8.9414 21.09,20.5977c0,11.7148 -8.262,20.5351 -21.09,20.5351l-14.058,0z"/>
  <path id="svg_16" fill="#222325" d="m48.8516,25.4062l0,-14.707l14.2422,0l0,14.707l-14.2422,0z"/>
  <path id="svg_17" fill="#222325" d="m68.0781,25.4062l0,-14.707l13.9414,0l0,14.707l-13.9414,0z"/>
  <path id="svg_18" fill="#222325" d="m10.6992,44.1914l0,-13.8008l14.3828,0l0,13.8008l-14.3828,0z"/>
  <path id="svg_19" fill="#222325" d="m48.8516,44.1914l0,-13.8008l14.2422,0l0,13.8008l-14.2422,0z"/>
  <path id="svg_20" fill="#222325" d="m30.0664,82.0195l0,-13.6211l13.8008,0l0,13.6211l-13.8008,0z"/>
  <path id="svg_21" fill="#222325" d="m30.0664,25.4062l0,-14.707l13.8008,0l0,14.707l-13.8008,0z"/>
  <path id="svg_22" fill="#222325" d="m68.0781,44.1914l0,-13.8008l13.9414,0l0,13.8008l-13.9414,0z"/>
  <path id="svg_23" fill="#222325" d="m30.0664,44.1914l0,-13.8008l13.8008,0l0,13.8008l-13.8008,0z"/>
  <path id="svg_24" fill="#222325" d="m30.0664,63.4141l0,-14.2383l13.8008,0l0,14.2383l-13.8008,0z"/>
  <path id="svg_25" fill="#F35F19" d="m48.8516,63.4141l0,-14.2383l14.2422,0l0,14.2383l-14.2422,0z"/>
  <path id="svg_26" fill="#F35F19" d="m10.6992,25.4062l0,-14.707l14.3828,0l0,14.707l-14.3828,0z"/>
  <path id="svg_27" fill="#222325" d="m10.6992,82.0195l0,-13.6211l14.3828,0l0,13.6211l-14.3828,0z"/>
  <path id="svg_28" fill="#222325" d="m10.6992,63.4141l0,-14.2383l14.3828,0l0,14.2383l-14.3828,0z"/>
  <path id="svg_29" fill="#F35F19" d="m92.7188,0l-92.7188,0l0,92.7188l92.7188,0l0,-92.7188zm-5.0196,5.01953l0,82.67967l-82.67967,0l0,-82.67967l82.67967,0z"/>
 </g>
</svg>